<svg width="835" height="254" viewBox="0 0 835 254" fill="none" xmlns="http://www.w3.org/2000/svg">
<g clip-path="url(#clip0_15_2394)">
<path d="M576.913 77.6699C589.054 77.67 600.22 80.0545 610.41 84.8242C620.6 89.3773 629.49 95.7738 637.078 104.013C644.667 112.035 650.521 121.358 654.641 131.981C658.76 142.388 660.819 153.662 660.819 165.804C660.819 177.512 658.76 188.678 654.641 199.302C650.521 209.709 644.667 219.032 637.078 227.271C629.706 235.293 620.817 241.689 610.41 246.459C600.22 251.012 588.946 253.288 576.588 253.288C564.446 253.288 553.172 251.012 542.765 246.459C532.574 241.689 523.685 235.293 516.097 227.271C508.725 219.032 502.98 209.709 498.86 199.302C494.741 188.678 492.681 177.512 492.681 165.804C492.681 153.662 494.741 142.388 498.86 131.981C502.98 121.358 508.833 112.035 516.422 104.013C524.01 95.7738 532.9 89.3773 543.09 84.8242C553.497 80.0543 564.772 77.6699 576.913 77.6699ZM750.816 77.6699C762.958 77.67 774.123 80.0545 784.313 84.8242C794.504 89.3773 803.393 95.7738 810.981 104.013C818.57 112.035 824.424 121.358 828.544 131.981C832.663 142.388 834.723 153.662 834.723 165.804C834.723 177.512 832.663 188.678 828.544 199.302C824.424 209.709 818.57 219.032 810.981 227.271C803.61 235.293 794.72 241.689 784.313 246.459C774.123 251.012 762.849 253.288 750.491 253.288C738.35 253.288 727.075 251.012 716.668 246.459C706.478 241.689 697.588 235.293 690 227.271C682.628 219.032 676.883 209.709 672.764 199.302C668.644 188.678 666.584 177.512 666.584 165.804C666.584 153.662 668.644 142.388 672.764 131.981C676.883 121.358 682.737 112.035 690.325 104.013C697.914 95.7738 706.803 89.3773 716.993 84.8242C727.4 80.0543 738.675 77.6699 750.816 77.6699ZM194.254 54.7432H121.842V250.036H72.4121V54.7432H0V13.5127H194.254V54.7432ZM238.092 70.1035C240.556 70.1035 243.213 70.2575 246.062 70.5654C248.91 70.8734 251.413 71.2961 253.568 71.835V115.49C251.259 114.797 248.063 114.182 243.982 113.643C239.902 113.104 236.167 112.834 232.779 112.834C225.542 112.834 219.075 114.413 213.378 117.569C207.757 120.649 203.291 124.96 199.98 130.504C196.747 136.047 195.13 142.438 195.13 149.676V250.036H145.932V72.6436H193.629V103.595H195.477C198.71 92.5849 204.139 84.2698 211.761 78.6494C219.383 72.952 228.16 70.1036 238.092 70.1035ZM308.688 250.035H259.489V72.6436H308.688V250.035ZM403.308 199.566H405.156L441.882 72.6436H493.968L431.949 250.035H376.515L314.496 72.6436H366.467L403.308 199.566ZM576.588 97.1826C565.314 97.1826 555.014 100.327 545.691 106.614C536.585 112.902 529.214 121.249 523.577 131.656C517.94 141.846 515.121 153.338 515.121 166.13C515.121 178.705 517.832 190.196 523.252 200.603C528.889 210.793 536.369 218.923 545.691 224.994C555.014 230.848 565.314 233.775 576.588 233.775C587.862 233.775 598.161 230.74 607.483 224.669C616.806 218.598 624.287 210.359 629.924 199.952C635.561 189.328 638.379 177.837 638.379 165.479C638.379 152.904 635.561 141.413 629.924 131.006C624.287 120.599 616.806 112.36 607.483 106.289C598.161 100.218 587.862 97.1827 576.588 97.1826ZM750.491 97.1826C739.217 97.1826 728.918 100.327 719.595 106.614C710.489 112.902 703.118 121.249 697.48 131.656C691.843 141.846 689.024 153.338 689.024 166.13C689.024 178.705 691.735 190.196 697.155 200.603C702.792 210.793 710.272 218.923 719.595 224.994C728.918 230.848 739.217 233.775 750.491 233.775C761.765 233.775 772.064 230.74 781.387 224.669C790.71 218.598 798.19 210.359 803.827 199.952C809.464 189.328 812.282 177.837 812.282 165.479C812.282 152.904 809.464 141.413 803.827 131.006C798.19 120.599 790.71 112.36 781.387 106.289C772.064 100.218 761.765 97.1827 750.491 97.1826ZM284.204 0C291.518 0 297.755 2.46418 302.913 7.3916C308.148 12.2421 310.766 18.0549 310.767 24.8301C310.767 31.6825 308.149 37.5724 302.913 42.5C297.755 47.3506 291.518 49.7764 284.204 49.7764C276.89 49.7763 270.614 47.3506 265.379 42.5C260.221 37.5725 257.642 31.6823 257.642 24.8301C257.642 18.055 260.221 12.242 265.379 7.3916C270.614 2.46405 276.89 1.99521e-05 284.204 0Z" fill="#163300"/>
</g>
<defs>
<clipPath id="clip0_15_2394">
<rect width="835" height="254" fill="white"/>
</clipPath>
</defs>
</svg>
