<?xml version="1.0" encoding="UTF-8"?>
<svg version="1.1" xmlns="http://www.w3.org/2000/svg" width="120" height="120">
<path d="M0 0 C15.84 0 31.68 0 48 0 C48 3.63 48 7.26 48 11 C42.06 11 36.12 11 30 11 C30 26.51 30 42.02 30 58 C25.71 58 21.42 58 17 58 C17 42.49 17 26.98 17 11 C11.39 11 5.78 11 0 11 C0 7.37 0 3.74 0 0 Z " fill="#4B5E18" transform="translate(5,30)"/>
<path d="M0 0 C4.29 0 8.58 0 13 0 C15.36931069 6.09048033 17.34275032 12.23240601 19.1875 18.5 C19.46013672 19.4178125 19.73277344 20.335625 20.01367188 21.28125 C20.67832828 23.52009261 21.34038246 25.7596687 22 28 C22.23710693 27.22285645 22.47421387 26.44571289 22.71850586 25.64501953 C23.78967932 22.13778605 24.86355466 18.63138565 25.9375 15.125 C26.31068359 13.90167969 26.68386719 12.67835937 27.06835938 11.41796875 C27.42607422 10.25136719 27.78378906 9.08476563 28.15234375 7.8828125 C28.48226318 6.80402832 28.81218262 5.72524414 29.15209961 4.61376953 C30 2 30 2 31 0 C35.29 0 39.58 0 44 0 C42.75056411 6.01647449 41.21158393 11.74049015 39.1796875 17.53515625 C38.91616486 18.29928329 38.65264221 19.06341034 38.38113403 19.85069275 C37.55036362 22.25625285 36.71281809 24.65938662 35.875 27.0625 C35.30553688 28.70752565 34.73652246 30.3527067 34.16796875 31.99804688 C32.78381833 36.00051032 31.39359276 40.00081494 30 44 C25.05 44 20.1 44 15 44 C11.45378947 35.72550877 8.26666891 27.38375654 5.3503418 18.86938477 C4.67673372 16.90612114 3.99394209 14.94620364 3.31054688 12.98632812 C2.88193359 11.74173828 2.45332031 10.49714844 2.01171875 9.21484375 C1.62459717 8.09198975 1.23747559 6.96913574 0.83862305 5.81225586 C0 3 0 3 0 0 Z " fill="#4C5E18" transform="translate(70,44)"/>
<path d="M0 0 C4.29 0 8.58 0 13 0 C13.33 0.99 13.66 1.98 14 3 C14.474375 2.505 14.94875 2.01 15.4375 1.5 C19.30994814 -0.76679891 22.55493723 -0.19610571 27 0 C27 3.63 27 7.26 27 11 C24.78645833 11.13020833 22.57291667 11.26041667 20.359375 11.390625 C17.17089786 12.21413896 16.04888669 13.43254178 14 16 C13.36004039 19.0849946 13.36004039 19.0849946 13.390625 22.515625 C13.35839844 23.76601562 13.32617188 25.01640625 13.29296875 26.3046875 C13.27169922 28.25761719 13.27169922 28.25761719 13.25 30.25 C13.22035156 31.56742188 13.19070312 32.88484375 13.16015625 34.2421875 C13.08945464 37.49446134 13.0424643 40.74723492 13 44 C8.71 44 4.42 44 0 44 C0 29.48 0 14.96 0 0 Z " fill="#4C5E18" transform="translate(40,44)"/>
</svg>
